<svg width="17" height="19" viewBox="0 0 17 19" fill="none" xmlns="http://www.w3.org/2000/svg">
<path d="M15.8719 8.90648C15.771 9.00774 15.6511 9.08808 15.5191 9.1429C15.3871 9.19772 15.2455 9.22594 15.1026 9.22594C14.9596 9.22594 14.8181 9.19772 14.686 9.1429C14.554 9.08808 14.4341 9.00774 14.3332 8.90648L9.67262 4.2459V17.5515C9.67262 17.8396 9.55818 18.1158 9.35449 18.3195C9.15079 18.5232 8.87452 18.6377 8.58645 18.6377C8.29838 18.6377 8.02211 18.5232 7.81841 18.3195C7.61471 18.1158 7.50028 17.8396 7.50028 17.5515V4.2459L2.83789 8.90648C2.63384 9.11053 2.35709 9.22516 2.06852 9.22516C1.77995 9.22516 1.5032 9.11053 1.29915 8.90648C1.0951 8.70243 0.980469 8.42568 0.980469 8.13711C0.980469 7.84854 1.0951 7.57179 1.29915 7.36774L7.81617 0.850716C7.91708 0.749456 8.03699 0.669112 8.16901 0.614291C8.30104 0.55947 8.44259 0.53125 8.58554 0.53125C8.7285 0.53125 8.87005 0.55947 9.00207 0.614291C9.1341 0.669112 9.254 0.749456 9.35491 0.850716L15.8719 7.36774C15.9732 7.46865 16.0535 7.58855 16.1084 7.72058C16.1632 7.8526 16.1914 7.99415 16.1914 8.13711C16.1914 8.28006 16.1632 8.42161 16.1084 8.55364C16.0535 8.68566 15.9732 8.80557 15.8719 8.90648Z" fill="#1F1F25"/>
</svg>
