<svg width="23" height="21" viewBox="0 0 23 21" fill="none" xmlns="http://www.w3.org/2000/svg">
<path d="M14.972 16.0553C14.972 16.2395 14.8988 16.4162 14.7686 16.5464C14.6384 16.6766 14.4617 16.7498 14.2776 16.7498H4.55534C4.40256 16.7498 4.25673 16.8887 4.13173 16.9789L1.77756 18.8331V7.72201C1.77756 7.53783 1.85073 7.36119 1.98096 7.23096C2.11119 7.10073 2.28783 7.02756 2.47201 7.02756H5.15256V5.63867H2.47201C1.91947 5.63867 1.38957 5.85817 0.998866 6.24887C0.608165 6.63957 0.388672 7.16947 0.388672 7.72201V20.222C0.389705 20.351 0.426635 20.4771 0.495322 20.5863C0.564009 20.6954 0.661739 20.7833 0.777561 20.8401C0.889143 20.8908 1.01217 20.9111 1.13414 20.8989C1.25611 20.8867 1.37268 20.8425 1.47201 20.7706L5.04839 18.1387H14.3817C14.6449 18.1465 14.9069 18.1001 15.1515 18.0025C15.396 17.9049 15.618 17.7582 15.8035 17.5713C15.9891 17.3845 16.1343 17.1615 16.2301 16.9163C16.326 16.6711 16.3705 16.4088 16.3609 16.1456V15.3609H14.972V16.0553Z" fill="white"/>
<path d="M20.5276 0.777344H8.72201C8.16947 0.777344 7.63957 0.996837 7.24887 1.38754C6.85817 1.77824 6.63867 2.30814 6.63867 2.86068V11.194C6.63867 11.7465 6.85817 12.2764 7.24887 12.6671C7.63957 13.0578 8.16947 13.2773 8.72201 13.2773H18.1317L21.4512 15.8537C21.5499 15.9267 21.6661 15.9722 21.7881 15.9856C21.9101 15.999 22.0334 15.9799 22.1456 15.9301C22.2638 15.8738 22.3637 15.7853 22.4337 15.6747C22.5037 15.5641 22.5411 15.436 22.5415 15.3051V2.86068C22.5418 2.31997 22.3318 1.80032 21.956 1.41156C21.5802 1.02279 21.068 0.795367 20.5276 0.777344ZM21.222 13.9301L18.7914 12.0343C18.6702 11.9402 18.5213 11.8889 18.3678 11.8885H8.72201C8.53783 11.8885 8.36119 11.8153 8.23096 11.6851C8.10073 11.5548 8.02756 11.3782 8.02756 11.194V2.86068C8.02756 2.6765 8.10073 2.49986 8.23096 2.36963C8.36119 2.2394 8.53783 2.16623 8.72201 2.16623H20.5276C20.7132 2.18308 20.8863 2.26722 21.0142 2.4028C21.1421 2.53838 21.216 2.71605 21.222 2.90234V13.9301Z" fill="white"/>
</svg>
