<svg width="20" height="20" viewBox="0 0 20 20" fill="none" xmlns="http://www.w3.org/2000/svg">
<path d="M20 10C20 15.5228 15.5228 20 10 20C4.47715 20 0 15.5228 0 10C0 4.47715 4.47715 0 10 0C15.5228 0 20 4.47715 20 10Z" fill="#CBF147"/>
<g clip-path="url(#clip0_899_1130)">
<path d="M8.57171 13.7438L5.35742 14.6438L6.25742 11.4295L12.1431 5.57233C12.2097 5.5043 12.2891 5.45024 12.3768 5.41334C12.4645 5.37643 12.5587 5.35742 12.6539 5.35742C12.749 5.35742 12.8432 5.37643 12.9309 5.41334C13.0186 5.45024 13.098 5.5043 13.1646 5.57233L14.4288 6.84376C14.4957 6.91021 14.5488 6.98923 14.585 7.07626C14.6212 7.1633 14.6398 7.25664 14.6398 7.3509C14.6398 7.44517 14.6212 7.53851 14.585 7.62554C14.5488 7.71258 14.4957 7.7916 14.4288 7.85805L8.57171 13.7438Z" stroke="#222222" stroke-linecap="round" stroke-linejoin="round"/>
</g>
<defs>
<clipPath id="clip0_899_1130">
<rect width="10" height="10" fill="white" transform="translate(5 5)"/>
</clipPath>
</defs>
</svg>
