<svg width="22" height="20" viewBox="0 0 22 20" fill="none" xmlns="http://www.w3.org/2000/svg">
<path d="M11.6831 19.7182L20.2684 10.7128C21.3824 9.5315 22.0044 7.94236 22 6.28863C21.9956 4.6349 21.3652 3.04934 20.2451 1.87445C19.6956 1.29207 19.0401 0.829043 18.3167 0.512291C17.5934 0.19554 16.8166 0.0313927 16.0317 0.0293987C15.2467 0.0274047 14.4692 0.187604 13.7444 0.500676C13.0195 0.813749 12.3619 1.27345 11.8096 1.85302L10.9901 2.71443L10.1583 1.84302C9.60953 1.26142 8.95494 0.798971 8.2326 0.482575C7.51026 0.166179 6.73459 0.00214778 5.95068 2.09513e-05C5.16677 -0.00210588 4.39028 0.157714 3.66636 0.470186C2.94244 0.782658 2.28554 1.24155 1.73386 1.82017C-0.58709 4.25581 -0.57609 8.21427 1.75586 10.6613L10.3865 19.7182C10.744 20.0939 11.3256 20.0939 11.6831 19.7182ZM12.7872 2.85728C13.2117 2.41212 13.7172 2.05917 14.2743 1.819C14.8313 1.57883 15.4288 1.45623 16.032 1.45836C16.6351 1.46049 17.2318 1.58729 17.7873 1.83139C18.3427 2.07548 18.8459 2.43199 19.2675 2.88013C20.1326 3.78774 20.6198 5.01227 20.6239 6.28964C20.628 7.56702 20.1488 8.79491 19.2895 9.70851V9.71137L11.0341 18.3683L2.73209 9.65565C0.926751 7.76142 0.925376 4.69865 2.71146 2.82442C3.13539 2.38008 3.64016 2.0278 4.19639 1.78809C4.75262 1.54838 5.34919 1.42603 5.95137 1.42815C6.55355 1.43028 7.14931 1.55685 7.70395 1.80048C8.2586 2.04412 8.76105 2.39996 9.18207 2.84728L10.502 4.23295C10.566 4.30012 10.6421 4.35344 10.726 4.38983C10.8099 4.42622 10.8999 4.44495 10.9908 4.44495C11.0818 4.44495 11.1718 4.42622 11.2557 4.38983C11.3396 4.35344 11.4157 4.30012 11.4796 4.23295L12.7872 2.85728Z" fill="white"/>
</svg>
