<svg width="19" height="20" viewBox="0 0 19 20" fill="none" xmlns="http://www.w3.org/2000/svg">
<path d="M8.48958 0.697492C8.77196 0.458374 9.12998 0.327148 9.5 0.327148C9.87002 0.327148 10.228 0.458374 10.5104 0.697492L18.3229 7.32562C18.4959 7.47228 18.6349 7.65484 18.7302 7.86063C18.8256 8.06641 18.875 8.29049 18.875 8.51728V18.3121C18.875 18.7265 18.7104 19.1239 18.4174 19.4169C18.1243 19.71 17.7269 19.8746 17.3125 19.8746H11.3229C11.1157 19.8746 10.917 19.7923 10.7705 19.6458C10.624 19.4992 10.5417 19.3005 10.5417 19.0933V12.5829H8.45833V19.0933C8.45833 19.3005 8.37602 19.4992 8.22951 19.6458C8.083 19.7923 7.88428 19.8746 7.67708 19.8746H1.6875C1.2731 19.8746 0.875671 19.71 0.582646 19.4169C0.28962 19.1239 0.125 18.7265 0.125 18.3121V8.51728C0.125 8.05895 0.327083 7.62249 0.677083 7.32562L8.48958 0.697492ZM9.5 1.88916L1.6875 8.51728V18.3121H6.89583V11.8017C6.89583 11.5945 6.97814 11.3957 7.12466 11.2492C7.27117 11.1027 7.46988 11.0204 7.67708 11.0204H11.3229C11.5301 11.0204 11.7288 11.1027 11.8753 11.2492C12.0219 11.3957 12.1042 11.5945 12.1042 11.8017V18.3121H17.3125V8.51728L9.5 1.88916Z" fill="white"/>
</svg>
