<svg width="27" height="25" viewBox="0 0 27 25" fill="none" xmlns="http://www.w3.org/2000/svg">
<path d="M21.8047 22.1348C21.8047 16.9957 17.6391 12.8301 12.5 12.8301C7.36094 12.8301 3.19531 16.9957 3.19531 22.1348H21.8047Z" fill="#CBF147"/>
<path d="M12.715 12.8382C15.4689 12.8382 17.7014 10.6056 17.7014 7.85169C17.7014 5.09775 15.4689 2.86523 12.715 2.86523C9.96103 2.86523 7.72852 5.09775 7.72852 7.85169C7.72852 10.6056 9.96103 12.8382 12.715 12.8382Z" fill="#CBF147"/>
<g clip-path="url(#clip0_720_1327)">
<path d="M18.229 13.8008C17.5904 13.8007 16.9661 13.9901 16.4351 14.3449C15.9041 14.6997 15.4902 15.2039 15.2458 15.7939C15.0014 16.384 14.9375 17.0332 15.0621 17.6595C15.1867 18.2859 15.4942 18.8612 15.9458 19.3128L20.717 24.084C20.7541 24.1212 20.7983 24.1508 20.8469 24.171C20.8955 24.1911 20.9476 24.2015 21.0002 24.2015C21.0528 24.2015 21.1049 24.1911 21.1535 24.171C21.2021 24.1508 21.2462 24.1212 21.2834 24.084L26.0546 19.312C26.6437 18.7032 26.97 17.8873 26.9631 17.0401C26.9561 16.193 26.6165 15.3825 26.0175 14.7835C25.4185 14.1844 24.608 13.8448 23.7608 13.8379C22.9137 13.831 22.0978 14.1572 21.489 14.7464L21.0002 15.2344L20.5122 14.7464C20.2123 14.4465 19.8562 14.2086 19.4643 14.0463C19.0724 13.8841 18.6531 13.8007 18.229 13.8008Z" fill="#F24E1E"/>
</g>
<defs>
<clipPath id="clip0_720_1327">
<rect width="12" height="12" fill="white" transform="translate(15 13)"/>
</clipPath>
</defs>
</svg>
