<svg width="35" height="24" viewBox="0 0 35 24" fill="none" xmlns="http://www.w3.org/2000/svg">
<path d="M15.6914 19.3828L6.50725 19.3828L6.50725 10.1894L10.1901 2.82364L14.7684 2.82364L11.1039 10.1894L15.6914 10.1894L15.6914 19.3828Z" fill="#CBF147"/>
<path d="M28.5391 19.3828L19.3549 19.3828L19.3549 10.1894L23.0378 2.82364L27.616 2.82364L23.9516 10.1894L28.5391 10.1894L28.5391 19.3828Z" fill="#CBF147"/>
<g clip-path="url(#clip0_720_1333)">
<path d="M23.229 12.8008C22.5904 12.8007 21.9661 12.9901 21.4351 13.3449C20.9041 13.6997 20.4902 14.2039 20.2458 14.7939C20.0014 15.384 19.9375 16.0332 20.0621 16.6595C20.1867 17.2859 20.4942 17.8612 20.9458 18.3128L25.717 23.084C25.7541 23.1212 25.7983 23.1508 25.8469 23.171C25.8955 23.1911 25.9476 23.2015 26.0002 23.2015C26.0528 23.2015 26.1049 23.1911 26.1535 23.171C26.2021 23.1508 26.2462 23.1212 26.2834 23.084L31.0546 18.312C31.6437 17.7032 31.97 16.8873 31.9631 16.0401C31.9561 15.193 31.6165 14.3825 31.0175 13.7835C30.4185 13.1844 29.608 12.8448 28.7608 12.8379C27.9137 12.831 27.0978 13.1572 26.489 13.7464L26.0002 14.2344L25.5122 13.7464C25.2123 13.4465 24.8562 13.2086 24.4643 13.0463C24.0724 12.8841 23.6531 12.8007 23.229 12.8008Z" fill="#F24E1E"/>
</g>
<defs>
<clipPath id="clip0_720_1333">
<rect width="12" height="12" fill="white" transform="translate(20 12)"/>
</clipPath>
</defs>
</svg>
