<svg width="20" height="20" viewBox="0 0 20 20" fill="none" xmlns="http://www.w3.org/2000/svg">
<path fill-rule="evenodd" clip-rule="evenodd" d="M19.6332 17.9638L14.1574 12.4857C15.139 11.1469 15.6648 9.52838 15.6575 7.86833C15.6387 3.53505 12.134 0.0251076 7.80094 7.96008e-05C5.72731 -0.00930271 3.73606 0.811058 2.27078 2.27841C0.805502 3.74576 -0.0120929 5.73821 0.000135216 7.8119C0.0188636 12.1456 3.52389 15.6558 7.85737 15.6809C9.52411 15.6881 11.1485 15.1561 12.4881 14.1644L12.4938 14.1601L17.9646 19.6339C18.2604 19.9442 18.7012 20.0698 19.1161 19.9621C19.531 19.8543 19.8549 19.5301 19.9623 19.1151C20.0698 18.7 19.9438 18.2594 19.6332 17.9638ZM1.56651 7.81801C1.58172 11.2848 4.3857 14.0927 7.85229 14.1126C9.51097 14.1195 11.1036 13.463 12.2756 12.2892C13.4476 11.1154 14.1017 9.52175 14.0924 7.86301C14.0771 4.39626 11.2732 1.58836 7.80657 1.56841C6.14789 1.56152 4.55529 2.21805 3.38328 3.39184C2.21128 4.56563 1.55715 6.15927 1.56651 7.81801Z" fill="white"/>
</svg>
