<svg width="20" height="20" viewBox="0 0 20 20" fill="none" xmlns="http://www.w3.org/2000/svg">
<path d="M19.7081 18.2921C19.801 18.385 19.8747 18.4953 19.9249 18.6167C19.9752 18.7381 20.0011 18.8682 20.0011 18.9996C20.0011 19.131 19.9752 19.2611 19.9249 19.3825C19.8747 19.5039 19.801 19.6142 19.7081 19.7071C19.6151 19.8 19.5048 19.8737 19.3835 19.924C19.2621 19.9743 19.132 20.0001 19.0006 20.0001C18.8692 20.0001 18.7391 19.9743 18.6177 19.924C18.4963 19.8737 18.386 19.8 18.2931 19.7071L10.0006 11.4133L1.70806 19.7071C1.52042 19.8947 1.26592 20.0001 1.00056 20.0001C0.735192 20.0001 0.480697 19.8947 0.293056 19.7071C0.105415 19.5194 5.23096e-09 19.2649 0 18.9996C-5.23096e-09 18.7342 0.105415 18.4797 0.293056 18.2921L8.58681 9.99958L0.293056 1.70708C0.105415 1.51944 -1.97712e-09 1.26494 0 0.999579C1.97712e-09 0.734215 0.105415 0.47972 0.293056 0.292079C0.480697 0.104439 0.735192 -0.000976561 1.00056 -0.000976562C1.26592 -0.000976564 1.52042 0.104439 1.70806 0.292079L10.0006 8.58583L18.2931 0.292079C18.4807 0.104439 18.7352 -0.000976568 19.0006 -0.000976562C19.2659 -0.000976557 19.5204 0.104439 19.7081 0.292079C19.8957 0.47972 20.0011 0.734215 20.0011 0.999579C20.0011 1.26494 19.8957 1.51944 19.7081 1.70708L11.4143 9.99958L19.7081 18.2921Z" fill="#111111"/>
</svg>
